<svg width="30" height="30" viewBox="0 0 30 30" fill="none" xmlns="http://www.w3.org/2000/svg">
<path d="M12.5 7.5C11.8125 7.5 11.224 7.25521 10.7344 6.76562C10.2448 6.27604 10 5.6875 10 5C10 4.3125 10.2448 3.72396 10.7344 3.23438C11.224 2.74479 11.8125 2.5 12.5 2.5C13.1875 2.5 13.776 2.74479 14.2656 3.23438C14.7552 3.72396 15 4.3125 15 5C15 5.6875 14.7552 6.27604 14.2656 6.76562C13.776 7.25521 13.1875 7.5 12.5 7.5ZM20.625 22.5C21.5 22.5 22.2396 22.1979 22.8438 21.5938C23.4479 20.9896 23.75 20.25 23.75 19.375C23.75 18.5 23.4479 17.7604 22.8438 17.1562C22.2396 16.5521 21.5 16.25 20.625 16.25C19.75 16.25 19.0104 16.5521 18.4062 17.1562C17.8021 17.7604 17.5 18.5 17.5 19.375C17.5 20.25 17.8021 20.9896 18.4062 21.5938C19.0104 22.1979 19.75 22.5 20.625 22.5ZM27 27.5L23.625 24.125C23.1667 24.4167 22.6875 24.6354 22.1875 24.7812C21.6875 24.9271 21.1667 25 20.625 25C19.0625 25 17.7344 24.4531 16.6406 23.3594C15.5469 22.2656 15 20.9375 15 19.375C15 17.8125 15.5469 16.4844 16.6406 15.3906C17.7344 14.2969 19.0625 13.75 20.625 13.75C22.1875 13.75 23.5156 14.2969 24.6094 15.3906C25.7031 16.4844 26.25 17.8125 26.25 19.375C26.25 19.9167 26.1771 20.4375 26.0312 20.9375C25.8854 21.4375 25.6667 21.9167 25.375 22.375L28.75 25.75L27 27.5ZM13.75 27.5V23.7188C14.0625 24.2188 14.4323 24.6771 14.8594 25.0938C15.2865 25.5104 15.75 25.8854 16.25 26.2188V27.5H13.75ZM8.75 27.5V11.25C7.47917 11.1458 6.21875 10.9948 4.96875 10.7969C3.71875 10.599 2.47917 10.3333 1.25 10L1.875 7.5C3.625 7.97917 5.38021 8.30729 7.14062 8.48438C8.90104 8.66146 10.6875 8.75 12.5 8.75C14.3125 8.75 16.099 8.66146 17.8594 8.48438C19.6198 8.30729 21.375 7.97917 23.125 7.5L23.75 10C22.5208 10.3333 21.2812 10.599 20.0312 10.7969C18.7812 10.9948 17.5208 11.1458 16.25 11.25V12.5313C15.125 13.2604 14.2188 14.224 13.5312 15.4219C12.8438 16.6198 12.5 17.9375 12.5 19.375V19.6875C12.5 19.7917 12.5104 19.8958 12.5313 20H11.25V27.5H8.75Z" fill="white"/>
</svg>
