<svg width="266" height="326" viewBox="0 0 266 326" fill="none" xmlns="http://www.w3.org/2000/svg">
<path fill-rule="evenodd" clip-rule="evenodd" d="M157.738 36.4901C162.346 31.0814 165.464 24.4529 164.943 17.0255C163.442 -4.37502 133.651 0.332811 127.857 11.1339C122.062 21.9351 122.75 49.333 130.24 51.2635C133.226 52.0333 139.589 50.1475 146.065 46.2443L142 75H166L157.738 36.4901Z" fill="#B28B67"/>
<path fill-rule="evenodd" clip-rule="evenodd" d="M144.863 19.3886C143.944 32.1857 141.514 38.5843 137.572 38.5843C131.66 38.5843 126.643 34.8307 124.049 34.8307C122.157 34.8307 122.58 37.1974 123.833 38.9521C124.868 40.3998 129.904 41.7953 129.904 44.0397C129.904 46.2841 125.925 44.5477 125.925 45.8789C125.925 48.0807 125.225 52.2206 129.047 52.2206C132.915 52.2206 144.003 50.8112 145.904 45.0711C147.13 41.3666 147.923 33.6902 148.283 22.0419C148.517 22.014 148.756 21.9996 148.998 21.9996C152.312 21.9996 154.998 24.6859 154.998 27.9996C154.998 29.6819 154.306 31.2024 153.191 32.2919C154.579 34.2515 156.135 36.2985 157.918 38.4108C164.616 34.3923 169.586 22.6286 163.038 11.3279C161.228 5.79188 157.13 2.83488 152.291 1.46185C148.371 -0.177939 144.301 -0.362828 140.866 0.620211C134.132 1.1978 128.119 3.25115 126.415 4.47059C126.415 10.8458 127.65 12.7373 138.201 12.5706C140.794 13.9398 142.787 16.2975 144.863 19.3886Z" fill="#191847"/>
<path fill-rule="evenodd" clip-rule="evenodd" d="M47.1147 176.096C39.9348 166.358 21.9876 172.804 21.9984 180.865C22.0268 202.031 41.3418 302.512 42.3502 308.856C43.3587 315.2 54.1618 317.275 54.7909 309.348C55.7919 296.736 57.6516 253.013 55.7909 232.671C55.2474 226.73 54.6743 220.987 54.0971 215.607C64.2483 233.843 79.6843 259.619 100.405 292.934L111.922 287.672C102.878 257.876 95.4627 236.841 89.675 224.566C79.7652 203.55 70.4731 185.552 66.5624 179.212C61.3966 170.838 53.0178 171.949 47.1147 176.096Z" fill="#B28B67"/>
<path fill-rule="evenodd" clip-rule="evenodd" d="M111.1 271.123L71.5719 177.485C62.1026 162.253 35.5532 180.585 38.7824 189.42C46.1138 209.477 83.3996 274.412 85.5839 280.388L111.1 271.123Z" fill="#1F28CF"/>
<path fill-rule="evenodd" clip-rule="evenodd" d="M21 188.176C21 214.717 32.6337 277.105 32.6417 282.95L60.8239 281.999C55.8976 227.757 53.8201 200.451 54.5915 200.084C56.327 199.257 125.738 209.691 146.555 210.478C176.574 211.615 188.992 193.198 190 158.25H131.852C82.131 164.185 49.452 168.313 33.8155 170.634C23.7741 172.124 21 180.865 21 188.176Z" fill="#2B44FF"/>
<path fill-rule="evenodd" clip-rule="evenodd" d="M83.4401 266.047L76.9868 267.656C68.4127 269.793 63.1951 278.477 65.3328 287.051L67.2682 294.813C69.406 303.387 78.0896 308.605 86.6637 306.467L93.117 304.858C101.691 302.721 106.909 294.037 104.771 285.463L102.836 277.701C100.698 269.126 92.0142 263.909 83.4401 266.047ZM90.1254 273.688C92.2689 273.154 94.4398 274.458 94.9742 276.602L98.3455 290.124C98.88 292.267 97.5756 294.438 95.4321 294.972L79.9784 298.825C77.8349 299.36 75.664 298.055 75.1296 295.912L71.7583 282.39C71.2238 280.247 72.5282 278.076 74.6717 277.541L90.1254 273.688Z" fill="#C5CFD6"/>
<path fill-rule="evenodd" clip-rule="evenodd" d="M56.3219 294.402C57.4406 297.388 58 299.623 58 301.106C58 302.909 57.6996 305.54 57.0988 309C55.0068 309 36.2062 309 0.696945 309C-0.768738 304.155 0.0773392 301.539 3.23518 301.152C6.39301 300.766 9.01628 300.417 11.105 300.106L37.32 288.419C37.8244 288.194 38.4157 288.421 38.6405 288.925C38.6444 288.934 38.6481 288.942 38.6517 288.951L40.3368 293.039C43.2601 294.403 45.6356 295.085 47.4633 295.085C48.9483 295.085 50.999 294.485 53.6155 293.286C54.6196 292.825 55.8067 293.266 56.267 294.27C56.2869 294.313 56.3052 294.357 56.3219 294.402Z" fill="#E4E4E4"/>
<path d="M7.5 309H53.5C55.433 309 57 310.567 57 312.5C57 314.433 55.433 316 53.5 316H7.5C5.56701 316 4 314.433 4 312.5C4 310.567 5.56701 309 7.5 309Z" fill="#2F3676"/>
<path fill-rule="evenodd" clip-rule="evenodd" d="M193 164H86C80.4771 164 76 168.477 76 174V223H199C201.209 223 203 221.209 203 219V174C203 168.477 198.523 164 193 164Z" fill="#2F3676"/>
<path fill-rule="evenodd" clip-rule="evenodd" d="M86 164H83.8063C78.9088 164 74.7319 167.547 73.9384 172.38L52 306H62.6857" fill="#2F3676"/>
<path d="M57 326C47.0589 326 39 317.941 39 308C39 298.059 47.0589 290 57 290C66.9411 290 75 298.059 75 308C75 317.941 66.9411 326 57 326Z" fill="#191847"/>
<path fill-rule="evenodd" clip-rule="evenodd" d="M190 324C231.974 324 266 289.974 266 248C266 206.026 231.974 172 190 172C148.026 172 114 206.026 114 248C114 289.974 148.026 324 190 324ZM190 310C155.758 310 128 282.242 128 248C128 213.758 155.758 186 190 186C224.242 186 252 213.758 252 248C252 282.242 224.242 310 190 310Z" fill="#191847"/>
<path d="M186 182H194V314H186V182Z" fill="#191847"/>
<path d="M141.918 202.747L144.746 199.918C145.527 199.137 146.793 199.137 147.574 199.918L238.084 290.428C238.865 291.209 238.865 292.475 238.084 293.256L235.256 296.085C234.475 296.866 233.208 296.866 232.427 296.085L141.918 205.575C141.136 204.794 141.136 203.528 141.918 202.747Z" fill="#191847"/>
<path d="M124 250V246C124 244.895 124.895 244 126 244H254C255.105 244 256 244.895 256 246V250C256 251.105 255.105 252 254 252H126C124.895 252 124 251.105 124 250Z" fill="#191847"/>
<path d="M144.747 296.082L141.918 293.254C141.137 292.473 141.137 291.207 141.918 290.426L232.428 199.916C233.209 199.135 234.475 199.135 235.256 199.916L238.085 202.744C238.866 203.525 238.866 204.792 238.085 205.573L147.575 296.082C146.794 296.864 145.528 296.864 144.747 296.082Z" fill="#191847"/>
<path fill-rule="evenodd" clip-rule="evenodd" d="M89.2175 145.215L57.3192 168.638C48.6677 170.973 41.4397 173.877 35.6351 177.352C34.264 178.601 32.6068 181.132 38.2933 180.694C43.9798 180.257 49.9807 180.053 50.7654 181.992C51.55 183.932 48.1088 186.251 49.6949 188.868C50.7523 190.613 55.7477 186.238 64.6813 175.744L96.2689 162.646L89.2175 145.215ZM211.691 146.023L190.793 146.105C203.697 187.759 210.662 209.86 211.691 212.409C214.005 218.143 209.108 226.877 207.014 231.57C213.834 234.622 213.107 223.32 221.711 227.323C229.563 230.976 235.537 237.596 244.61 231.998C245.725 231.309 246.947 228.718 243.994 226.693C236.636 221.648 226.033 212.818 224.601 209.912C222.647 205.948 218.344 184.652 211.691 146.023Z" fill="#B28B67"/>
<path fill-rule="evenodd" clip-rule="evenodd" d="M152.304 58.3321L143.657 56.8489C111.573 84.5643 98.3956 137.809 59.0693 166.015L68.5348 177.748C136.759 169.301 153.669 104.355 152.304 58.3321Z" fill="#E87613"/>
<path fill-rule="evenodd" clip-rule="evenodd" d="M190 167C155.328 167 129.824 167 113.489 167C109.992 167 110.651 161.952 111.157 159.404C116.989 130.004 139.759 98.3115 139.759 56.4607L161.828 53C180.083 82.3584 186.395 118.505 190 167Z" fill="#DDE3E9"/>
<path fill-rule="evenodd" clip-rule="evenodd" d="M189.385 81.8595C192.59 80.9381 195.128 78.7892 196.999 75.4127C205.066 60.8576 202.153 52.8439 193.532 50.2098C184.912 47.5757 177.224 53.0015 163.489 53.0015C162.742 53.0015 162.058 53.0484 161.437 53.142L154.528 53.5363C134.706 120.717 129.239 165.538 138.127 188.002H198.348C201.916 196.321 205.33 203.321 208.59 209.002H224.999C226.544 159.069 214.672 116.688 189.385 81.8595Z" fill="#FF9B21"/>
<path fill-rule="evenodd" clip-rule="evenodd" d="M185.234 153.5C183.34 169.346 180.262 180.847 175.999 188.002H198.348C194.186 178.297 189.815 166.797 185.234 153.5Z" fill="black" fill-opacity="0.1"/>
</svg>
