<svg width="60" height="60" viewBox="0 0 60 60" fill="none" xmlns="http://www.w3.org/2000/svg">
<g clip-path="url(#clip0_1802_10128)">
<rect x="0.5" y="0.5" width="59" height="59" rx="29.5" fill="#B3B3B3"/>
<rect x="0.5" y="0.5" width="59" height="59" rx="29.5" stroke="white"/>
<path d="M22.3342 42L18.1342 21.364H21.4662L23.3982 32.116C23.7622 34.3 24.1262 36.512 24.4902 38.724H24.6022C25.0502 36.512 25.5262 34.3 26.0022 32.116L28.6622 21.364H31.5462L34.2062 32.116C34.6822 34.272 35.1302 36.484 35.6062 38.724H35.7462C36.0822 36.484 36.4462 34.272 36.7822 32.116L38.7422 21.364H41.8502L37.7902 42H33.7862L31.0142 30.548C30.6502 28.924 30.3422 27.384 30.0622 25.816H29.9502C29.6422 27.384 29.3062 28.924 28.9702 30.548L26.2542 42H22.3342Z" fill="white"/>
</g>
<defs>
<clipPath id="clip0_1802_10128">
<rect width="60" height="60" fill="white"/>
</clipPath>
</defs>
</svg>
