<svg width="24" height="24" viewBox="0 0 24 24" fill="none" xmlns="http://www.w3.org/2000/svg">
<path fill-rule="evenodd" clip-rule="evenodd" d="M2.7619 10.619C2.7619 6.41333 6.17524 3 10.381 3C14.5867 3 18 6.41333 18 10.619C18 10.6712 17.9995 10.7231 17.9984 10.775C20.2374 11.3289 21.8988 13.3525 21.8988 15.7619C21.8988 16.5036 21.7365 17.1984 21.4608 17.8322L22.3598 20.8944L22.5533 21.5533L21.8944 21.3598L18.8322 20.4608C18.1984 20.7365 17.5036 20.8988 16.7619 20.8988C14.7405 20.8988 12.9907 19.7295 12.1525 18.0308C11.584 18.1663 10.9908 18.2381 10.381 18.2381C9.20762 18.2381 8.11048 17.9638 7.11238 17.499L2 19L3.50095 13.8876C3.03619 12.8895 2.7619 11.7924 2.7619 10.619ZM12.8854 17.8164C13.6226 19.2035 15.0826 20.1488 16.7619 20.1488C17.4355 20.1488 18.0674 19.9916 18.6465 19.722L18.7747 19.6622L18.9104 19.7021L21.4467 20.4467L20.7021 17.9104L20.6622 17.7747L20.722 17.6465C20.9916 17.0674 21.1488 16.4355 21.1488 15.7619C21.1488 13.7504 19.7925 12.0536 17.9452 11.5367C17.5938 14.4604 15.5843 16.8764 12.8854 17.8164ZM10.4436 7.82465C10.9345 7.82465 11.3325 7.42668 11.3325 6.93576C11.3325 6.44484 10.9345 6.04688 10.4436 6.04688C9.95266 6.04688 9.55469 6.44484 9.55469 6.93576C9.55469 7.42668 9.95266 7.82465 10.4436 7.82465ZM13.5576 10.0481V10.937C12.7798 10.9326 11.9087 10.5459 11.3354 10.0704V11.6037H12.6687C13.1576 11.6037 13.5576 12.0037 13.5576 12.4926V14.937H12.6687V12.7148H10.4465C9.95759 12.7148 9.55759 12.3148 9.55759 11.8259V9.19925C9.55759 8.73259 9.89537 8.31925 10.362 8.27925C10.5576 8.26148 10.7354 8.30592 10.8909 8.39481H10.8954C10.8976 8.39481 10.8987 8.39592 10.8998 8.39703C10.9009 8.39814 10.902 8.39925 10.9043 8.39925C11.0065 8.44814 11.0998 8.51481 11.1754 8.59925L11.7487 9.23481C12.1843 9.71481 12.8731 10.057 13.5576 10.0481ZM9.55759 14.0481C10.1398 14.0481 10.6331 13.6748 10.8154 13.1593H11.7354C11.655 13.5525 11.4696 13.9167 11.1988 14.2131C10.9281 14.5095 10.5821 14.727 10.1976 14.8425C9.81319 14.958 9.40463 14.9672 9.01536 14.8692C8.6261 14.7711 8.27066 14.5694 7.98681 14.2856C7.70296 14.0017 7.5013 13.6463 7.40325 13.257C7.3052 12.8678 7.31442 12.4592 7.42993 12.0748C7.54545 11.6903 7.76294 11.3443 8.05931 11.0736C8.35568 10.8028 8.71985 10.6174 9.11315 10.537V11.457C8.59759 11.6437 8.22426 12.1326 8.22426 12.7148C8.22426 13.4526 8.81981 14.0481 9.55759 14.0481Z" fill="#000000"/>
</svg>
